<svg width="121" height="8" viewBox="0 0 121 8" fill="none" xmlns="http://www.w3.org/2000/svg">
<path d="M5.3361 7.87537L4.81017 6.19585H2.09189L1.56596 7.87537H0L2.66509 0.10089H4.2547L6.90797 7.87537H5.3361ZM3.43921 1.91691L2.476 4.97329H4.43197L3.47467 1.91691H3.43921Z" fill="#1A1A1A"/>
<path d="M5.3361 7.87537L4.81017 6.19585H2.09189L1.56596 7.87537H0L2.66509 0.10089H4.2547L6.90797 7.87537H5.3361ZM3.43921 1.91691L2.476 4.97329H4.43197L3.47467 1.91691H3.43921Z" fill="url(#paint0_linear)"/>
<path d="M15.103 0.10089V7.87537H13.5548L10.4287 2.55786L10.3933 2.5638V7.87537H8.83913V0.10089H10.3933L13.5193 5.40653L13.5548 5.40059V0.10089H15.103Z" fill="#1A1A1A"/>
<path d="M15.103 0.10089V7.87537H13.5548L10.4287 2.55786L10.3933 2.5638V7.87537H8.83913V0.10089H10.3933L13.5193 5.40653L13.5548 5.40059V0.10089H15.103Z" fill="url(#paint1_linear)"/>
<path d="M24.0308 0.10089V7.87537H22.4825L19.3565 2.55786L19.321 2.5638V7.87537H17.7669V0.10089H19.321L22.4471 5.40653L22.4825 5.40059V0.10089H24.0308Z" fill="#1A1A1A"/>
<path d="M24.0308 0.10089V7.87537H22.4825L19.3565 2.55786L19.321 2.5638V7.87537H17.7669V0.10089H19.321L22.4471 5.40653L22.4825 5.40059V0.10089H24.0308Z" fill="url(#paint2_linear)"/>
<path d="M31.3748 7.87537L30.8489 6.19585H28.1306L27.6047 7.87537H26.0387L28.7038 0.10089H30.2934L32.9467 7.87537H31.3748ZM29.4779 1.91691L28.5147 4.97329H30.4707L29.5134 1.91691H29.4779Z" fill="#1A1A1A"/>
<path d="M31.3748 7.87537L30.8489 6.19585H28.1306L27.6047 7.87537H26.0387L28.7038 0.10089H30.2934L32.9467 7.87537H31.3748ZM29.4779 1.91691L28.5147 4.97329H30.4707L29.5134 1.91691H29.4779Z" fill="url(#paint3_linear)"/>
<path d="M42.0388 6.81899H42.0506C42.4682 6.81899 42.7892 6.73393 43.0138 6.5638C43.2423 6.38971 43.3565 6.1543 43.3565 5.85757C43.3565 5.55687 43.2521 5.31751 43.0433 5.13947C42.8385 4.95747 42.4682 4.78536 41.9324 4.62315C40.9593 4.34224 40.2482 4.0178 39.7991 3.64985C39.354 3.27794 39.1314 2.77943 39.1314 2.1543C39.1314 1.52522 39.4012 1.0089 39.941 0.605341C40.4807 0.20178 41.1721 0 42.0151 0C42.8621 0 43.5535 0.225519 44.0893 0.676558C44.6251 1.12364 44.8831 1.68546 44.8634 2.36202L44.8575 2.39169H43.3506C43.3506 2.02374 43.2285 1.73096 42.9842 1.51335C42.7439 1.29575 42.415 1.18694 41.9974 1.18694C41.5798 1.18694 41.2548 1.27794 41.0224 1.45994C40.7939 1.63798 40.6796 1.86746 40.6796 2.14837C40.6796 2.42532 40.7958 2.64886 41.0283 2.81899C41.2646 2.98516 41.6901 3.16518 42.3047 3.35905C43.1832 3.60435 43.8352 3.92483 44.2607 4.32047C44.6901 4.71217 44.9048 5.23046 44.9048 5.87537C44.9048 6.52028 44.6448 7.0366 44.1247 7.42433C43.6087 7.80811 42.9153 8 42.0447 8C41.4734 8 40.9514 7.90504 40.4787 7.71513C40.006 7.52127 39.6258 7.23244 39.3382 6.84866C39.0506 6.46489 38.9108 6.01978 38.9186 5.51335L38.9305 5.47775H40.4373C40.4373 6.37191 40.9711 6.81899 42.0388 6.81899Z" fill="#1A1A1A"/>
<path d="M42.0388 6.81899H42.0506C42.4682 6.81899 42.7892 6.73393 43.0138 6.5638C43.2423 6.38971 43.3565 6.1543 43.3565 5.85757C43.3565 5.55687 43.2521 5.31751 43.0433 5.13947C42.8385 4.95747 42.4682 4.78536 41.9324 4.62315C40.9593 4.34224 40.2482 4.0178 39.7991 3.64985C39.354 3.27794 39.1314 2.77943 39.1314 2.1543C39.1314 1.52522 39.4012 1.0089 39.941 0.605341C40.4807 0.20178 41.1721 0 42.0151 0C42.8621 0 43.5535 0.225519 44.0893 0.676558C44.6251 1.12364 44.8831 1.68546 44.8634 2.36202L44.8575 2.39169H43.3506C43.3506 2.02374 43.2285 1.73096 42.9842 1.51335C42.7439 1.29575 42.415 1.18694 41.9974 1.18694C41.5798 1.18694 41.2548 1.27794 41.0224 1.45994C40.7939 1.63798 40.6796 1.86746 40.6796 2.14837C40.6796 2.42532 40.7958 2.64886 41.0283 2.81899C41.2646 2.98516 41.6901 3.16518 42.3047 3.35905C43.1832 3.60435 43.8352 3.92483 44.2607 4.32047C44.6901 4.71217 44.9048 5.23046 44.9048 5.87537C44.9048 6.52028 44.6448 7.0366 44.1247 7.42433C43.6087 7.80811 42.9153 8 42.0447 8C41.4734 8 40.9514 7.90504 40.4787 7.71513C40.006 7.52127 39.6258 7.23244 39.3382 6.84866C39.0506 6.46489 38.9108 6.01978 38.9186 5.51335L38.9305 5.47775H40.4373C40.4373 6.37191 40.9711 6.81899 42.0388 6.81899Z" fill="url(#paint4_linear)"/>
<path d="M51.8588 0.11276H53.413V5.27003C53.413 6.13254 53.1313 6.80316 52.5679 7.2819C52.0046 7.76063 51.2482 8 50.2988 8C49.3533 8 48.6008 7.76261 48.0414 7.28783C47.482 6.8091 47.2023 6.1365 47.2023 5.27003V0.11276H48.7624V5.27003C48.7624 5.77646 48.8943 6.15826 49.1583 6.41543C49.4262 6.6726 49.8083 6.80119 50.3047 6.80119C50.8011 6.80119 51.1832 6.67458 51.4511 6.42136C51.7229 6.16419 51.8588 5.78042 51.8588 5.27003V0.11276Z" fill="#1A1A1A"/>
<path d="M51.8588 0.11276H53.413V5.27003C53.413 6.13254 53.1313 6.80316 52.5679 7.2819C52.0046 7.76063 51.2482 8 50.2988 8C49.3533 8 48.6008 7.76261 48.0414 7.28783C47.482 6.8091 47.2023 6.1365 47.2023 5.27003V0.11276H48.7624V5.27003C48.7624 5.77646 48.8943 6.15826 49.1583 6.41543C49.4262 6.6726 49.8083 6.80119 50.3047 6.80119C50.8011 6.80119 51.1832 6.67458 51.4511 6.42136C51.7229 6.16419 51.8588 5.78042 51.8588 5.27003V0.11276Z" fill="url(#paint5_linear)"/>
<path d="M57.5306 1.2997V3.85163H59.0611C59.4866 3.85163 59.8135 3.73689 60.042 3.50742C60.2705 3.27794 60.3848 2.97132 60.3848 2.58754C60.3848 2.1998 60.2705 1.88922 60.042 1.65579C59.8135 1.4184 59.4866 1.2997 59.0611 1.2997H57.5306ZM59.0611 5.05638H57.5306V7.87537H55.9764V0.10089H59.0611C59.9475 0.10089 60.6467 0.326409 61.1589 0.777448C61.675 1.22453 61.933 1.82591 61.933 2.5816C61.933 3.33333 61.6769 3.93472 61.1648 4.38576C60.6527 4.83284 59.9514 5.05638 59.0611 5.05638Z" fill="#1A1A1A"/>
<path d="M57.5306 1.2997V3.85163H59.0611C59.4866 3.85163 59.8135 3.73689 60.042 3.50742C60.2705 3.27794 60.3848 2.97132 60.3848 2.58754C60.3848 2.1998 60.2705 1.88922 60.042 1.65579C59.8135 1.4184 59.4866 1.2997 59.0611 1.2997H57.5306ZM59.0611 5.05638H57.5306V7.87537H55.9764V0.10089H59.0611C59.9475 0.10089 60.6467 0.326409 61.1589 0.777448C61.675 1.22453 61.933 1.82591 61.933 2.5816C61.933 3.33333 61.6769 3.93472 61.1648 4.38576C60.6527 4.83284 59.9514 5.05638 59.0611 5.05638Z" fill="url(#paint6_linear)"/>
<path d="M65.8438 7.88131H64.2896V0.106825H67.2147C68.1011 0.106825 68.7925 0.308605 69.2889 0.712166C69.7853 1.11573 70.0335 1.67953 70.0335 2.40356C70.0335 3.1909 69.6218 3.76657 68.7984 4.13056C69.6572 4.38773 70.0866 5.00495 70.0866 5.9822V6.55786C70.0866 6.80712 70.1182 7.04451 70.1812 7.27003C70.2442 7.49159 70.3408 7.65579 70.4708 7.76261V7.87537H68.8693C68.6448 7.69337 68.5325 7.25025 68.5325 6.54599V5.99407C68.5325 5.60633 68.4261 5.30564 68.2134 5.09199C68.0046 4.87438 67.7072 4.76558 67.3211 4.76558L65.8438 4.77151V7.88131ZM65.8438 1.2997V3.56677H67.1852C68.0519 3.56677 68.4852 3.19881 68.4852 2.46291C68.4852 2.09891 68.3769 1.81405 68.1602 1.60831C67.9435 1.40257 67.6284 1.2997 67.2147 1.2997H65.8438Z" fill="#1A1A1A"/>
<path d="M65.8438 7.88131H64.2896V0.106825H67.2147C68.1011 0.106825 68.7925 0.308605 69.2889 0.712166C69.7853 1.11573 70.0335 1.67953 70.0335 2.40356C70.0335 3.1909 69.6218 3.76657 68.7984 4.13056C69.6572 4.38773 70.0866 5.00495 70.0866 5.9822V6.55786C70.0866 6.80712 70.1182 7.04451 70.1812 7.27003C70.2442 7.49159 70.3408 7.65579 70.4708 7.76261V7.87537H68.8693C68.6448 7.69337 68.5325 7.25025 68.5325 6.54599V5.99407C68.5325 5.60633 68.4261 5.30564 68.2134 5.09199C68.0046 4.87438 67.7072 4.76558 67.3211 4.76558L65.8438 4.77151V7.88131ZM65.8438 1.2997V3.56677H67.1852C68.0519 3.56677 68.4852 3.19881 68.4852 2.46291C68.4852 2.09891 68.3769 1.81405 68.1602 1.60831C67.9435 1.40257 67.6284 1.2997 67.2147 1.2997H65.8438Z" fill="url(#paint7_linear)"/>
<path d="M77.3894 4.7003V3.28783C77.3894 2.67062 77.2377 2.17211 76.9343 1.79228C76.631 1.40851 76.2174 1.21662 75.6934 1.21662C75.1694 1.21662 74.7597 1.40653 74.4643 1.78635C74.1727 2.16222 74.027 2.66271 74.027 3.28783V4.7003C74.027 5.32938 74.1747 5.83581 74.4702 6.21958C74.7696 6.59941 75.1793 6.78932 75.6993 6.78932C76.2233 6.78932 76.6349 6.59941 76.9343 6.21958C77.2377 5.83581 77.3894 5.32938 77.3894 4.7003ZM78.9376 3.2997V4.7003C78.9376 5.66568 78.6362 6.45697 78.0335 7.07418C77.4347 7.69139 76.6546 8 75.6934 8C75.0631 8 74.5037 7.85955 74.0152 7.57864C73.5266 7.29377 73.1485 6.90208 72.8806 6.40356C72.6127 5.90109 72.4787 5.33333 72.4787 4.7003V3.2997C72.4787 2.33828 72.7762 1.54896 73.371 0.931751C73.9659 0.310584 74.74 0 75.6934 0C76.6507 0 77.4307 0.310584 78.0335 0.931751C78.6362 1.54896 78.9376 2.33828 78.9376 3.2997Z" fill="#1A1A1A"/>
<path d="M77.3894 4.7003V3.28783C77.3894 2.67062 77.2377 2.17211 76.9343 1.79228C76.631 1.40851 76.2174 1.21662 75.6934 1.21662C75.1694 1.21662 74.7597 1.40653 74.4643 1.78635C74.1727 2.16222 74.027 2.66271 74.027 3.28783V4.7003C74.027 5.32938 74.1747 5.83581 74.4702 6.21958C74.7696 6.59941 75.1793 6.78932 75.6993 6.78932C76.2233 6.78932 76.6349 6.59941 76.9343 6.21958C77.2377 5.83581 77.3894 5.32938 77.3894 4.7003ZM78.9376 3.2997V4.7003C78.9376 5.66568 78.6362 6.45697 78.0335 7.07418C77.4347 7.69139 76.6546 8 75.6934 8C75.0631 8 74.5037 7.85955 74.0152 7.57864C73.5266 7.29377 73.1485 6.90208 72.8806 6.40356C72.6127 5.90109 72.4787 5.33333 72.4787 4.7003V3.2997C72.4787 2.33828 72.7762 1.54896 73.371 0.931751C73.9659 0.310584 74.74 0 75.6934 0C76.6507 0 77.4307 0.310584 78.0335 0.931751C78.6362 1.54896 78.9376 2.33828 78.9376 3.2997Z" fill="url(#paint8_linear)"/>
<path d="M87.629 0.10089V7.87537H86.0808L82.9547 2.55786L82.9193 2.5638V7.87537H81.3651V0.10089H82.9193L86.0453 5.40653L86.0808 5.40059V0.10089H87.629Z" fill="#1A1A1A"/>
<path d="M87.629 0.10089V7.87537H86.0808L82.9547 2.55786L82.9193 2.5638V7.87537H81.3651V0.10089H82.9193L86.0453 5.40653L86.0808 5.40059V0.10089H87.629Z" fill="url(#paint9_linear)"/>
<path d="M95.0558 3.25223V4.45697H91.8471V6.67656H95.5995V7.87537H90.2929V0.10089H95.5876V1.2997H91.8471V3.25223H95.0558Z" fill="#1A1A1A"/>
<path d="M95.0558 3.25223V4.45697H91.8471V6.67656H95.5995V7.87537H90.2929V0.10089H95.5876V1.2997H91.8471V3.25223H95.0558Z" fill="url(#paint10_linear)"/>
<path d="M104.019 0.10089V7.87537H102.471L99.3448 2.55786L99.3093 2.5638V7.87537H97.7552V0.10089H99.3093L102.435 5.40653L102.471 5.40059V0.10089H104.019Z" fill="#1A1A1A"/>
<path d="M104.019 0.10089V7.87537H102.471L99.3448 2.55786L99.3093 2.5638V7.87537H97.7552V0.10089H99.3093L102.435 5.40653L102.471 5.40059V0.10089H104.019Z" fill="url(#paint11_linear)"/>
<path d="M108.237 4.62908V7.87537H106.683V0.10089H108.237V3.27596H108.917L110.967 0.10089H112.864L110.258 3.72107L113.071 7.87537H111.18L109.1 4.62908H108.237Z" fill="#1A1A1A"/>
<path d="M108.237 4.62908V7.87537H106.683V0.10089H108.237V3.27596H108.917L110.967 0.10089H112.864L110.258 3.72107L113.071 7.87537H111.18L109.1 4.62908H108.237Z" fill="url(#paint12_linear)"/>
<path d="M119.452 4.7003V3.28783C119.452 2.67062 119.3 2.17211 118.997 1.79228C118.693 1.40851 118.28 1.21662 117.756 1.21662C117.232 1.21662 116.822 1.40653 116.527 1.78635C116.235 2.16222 116.089 2.66271 116.089 3.28783V4.7003C116.089 5.32938 116.237 5.83581 116.533 6.21958C116.832 6.59941 117.242 6.78932 117.762 6.78932C118.286 6.78932 118.697 6.59941 118.997 6.21958C119.3 5.83581 119.452 5.32938 119.452 4.7003ZM121 3.2997V4.7003C121 5.66568 120.699 6.45697 120.096 7.07418C119.497 7.69139 118.717 8 117.756 8C117.125 8 116.566 7.85955 116.078 7.57864C115.589 7.29377 115.211 6.90208 114.943 6.40356C114.675 5.90109 114.541 5.33333 114.541 4.7003V3.2997C114.541 2.33828 114.839 1.54896 115.433 0.931751C116.028 0.310584 116.802 0 117.756 0C118.713 0 119.493 0.310584 120.096 0.931751C120.699 1.54896 121 2.33828 121 3.2997Z" fill="#1A1A1A"/>
<path d="M119.452 4.7003V3.28783C119.452 2.67062 119.3 2.17211 118.997 1.79228C118.693 1.40851 118.28 1.21662 117.756 1.21662C117.232 1.21662 116.822 1.40653 116.527 1.78635C116.235 2.16222 116.089 2.66271 116.089 3.28783V4.7003C116.089 5.32938 116.237 5.83581 116.533 6.21958C116.832 6.59941 117.242 6.78932 117.762 6.78932C118.286 6.78932 118.697 6.59941 118.997 6.21958C119.3 5.83581 119.452 5.32938 119.452 4.7003ZM121 3.2997V4.7003C121 5.66568 120.699 6.45697 120.096 7.07418C119.497 7.69139 118.717 8 117.756 8C117.125 8 116.566 7.85955 116.078 7.57864C115.589 7.29377 115.211 6.90208 114.943 6.40356C114.675 5.90109 114.541 5.33333 114.541 4.7003V3.2997C114.541 2.33828 114.839 1.54896 115.433 0.931751C116.028 0.310584 116.802 0 117.756 0C118.713 0 119.493 0.310584 120.096 0.931751C120.699 1.54896 121 2.33828 121 3.2997Z" fill="url(#paint13_linear)"/>
<defs>
<linearGradient id="paint0_linear" x1="60.5" y1="0" x2="60.5" y2="8" gradientUnits="userSpaceOnUse">
<stop stop-color="white" stop-opacity="0.71"/>
<stop offset="1" stop-color="white" stop-opacity="0.15"/>
</linearGradient>
<linearGradient id="paint1_linear" x1="60.5" y1="0" x2="60.5" y2="8" gradientUnits="userSpaceOnUse">
<stop stop-color="white" stop-opacity="0.71"/>
<stop offset="1" stop-color="white" stop-opacity="0.15"/>
</linearGradient>
<linearGradient id="paint2_linear" x1="60.5" y1="0" x2="60.5" y2="8" gradientUnits="userSpaceOnUse">
<stop stop-color="white" stop-opacity="0.71"/>
<stop offset="1" stop-color="white" stop-opacity="0.15"/>
</linearGradient>
<linearGradient id="paint3_linear" x1="60.5" y1="0" x2="60.5" y2="8" gradientUnits="userSpaceOnUse">
<stop stop-color="white" stop-opacity="0.71"/>
<stop offset="1" stop-color="white" stop-opacity="0.15"/>
</linearGradient>
<linearGradient id="paint4_linear" x1="60.5" y1="0" x2="60.5" y2="8" gradientUnits="userSpaceOnUse">
<stop stop-color="white" stop-opacity="0.71"/>
<stop offset="1" stop-color="white" stop-opacity="0.15"/>
</linearGradient>
<linearGradient id="paint5_linear" x1="60.5" y1="0" x2="60.5" y2="8" gradientUnits="userSpaceOnUse">
<stop stop-color="white" stop-opacity="0.71"/>
<stop offset="1" stop-color="white" stop-opacity="0.15"/>
</linearGradient>
<linearGradient id="paint6_linear" x1="60.5" y1="0" x2="60.5" y2="8" gradientUnits="userSpaceOnUse">
<stop stop-color="white" stop-opacity="0.71"/>
<stop offset="1" stop-color="white" stop-opacity="0.15"/>
</linearGradient>
<linearGradient id="paint7_linear" x1="60.5" y1="0" x2="60.5" y2="8" gradientUnits="userSpaceOnUse">
<stop stop-color="white" stop-opacity="0.71"/>
<stop offset="1" stop-color="white" stop-opacity="0.15"/>
</linearGradient>
<linearGradient id="paint8_linear" x1="60.5" y1="0" x2="60.5" y2="8" gradientUnits="userSpaceOnUse">
<stop stop-color="white" stop-opacity="0.71"/>
<stop offset="1" stop-color="white" stop-opacity="0.15"/>
</linearGradient>
<linearGradient id="paint9_linear" x1="60.5" y1="0" x2="60.5" y2="8" gradientUnits="userSpaceOnUse">
<stop stop-color="white" stop-opacity="0.71"/>
<stop offset="1" stop-color="white" stop-opacity="0.15"/>
</linearGradient>
<linearGradient id="paint10_linear" x1="60.5" y1="0" x2="60.5" y2="8" gradientUnits="userSpaceOnUse">
<stop stop-color="white" stop-opacity="0.71"/>
<stop offset="1" stop-color="white" stop-opacity="0.15"/>
</linearGradient>
<linearGradient id="paint11_linear" x1="60.5" y1="0" x2="60.5" y2="8" gradientUnits="userSpaceOnUse">
<stop stop-color="white" stop-opacity="0.71"/>
<stop offset="1" stop-color="white" stop-opacity="0.15"/>
</linearGradient>
<linearGradient id="paint12_linear" x1="60.5" y1="0" x2="60.5" y2="8" gradientUnits="userSpaceOnUse">
<stop stop-color="white" stop-opacity="0.71"/>
<stop offset="1" stop-color="white" stop-opacity="0.15"/>
</linearGradient>
<linearGradient id="paint13_linear" x1="60.5" y1="0" x2="60.5" y2="8" gradientUnits="userSpaceOnUse">
<stop stop-color="white" stop-opacity="0.71"/>
<stop offset="1" stop-color="white" stop-opacity="0.15"/>
</linearGradient>
</defs>
</svg>
